:version 1.10
:name ASF
:units
  mass 1
  length 1
  angle deg
:documentation
  ASF file generated by Kaydara
:root
  axis xyz
  order  tx ty tz rx ry rz
  position 0 0 0
  orientation 0 0 0
:bonedata
  begin
    id 1
    name RightUpLegDummy
    direction -0.65628 -0.754516 0.00165102
    length 4.76918
    axis 0 0 0 xyz
  end
  begin
    id 2
    name RightUpLeg
    direction -0.145584 -0.923362 0.355256
    length 17.9961
    axis -24.7611 -13.1006 1.78531 xyz
    dof rx ry rz
  end
  begin
    id 3
    name RightLeg
    direction 0.263379 0.172355 -0.949171
    length 13.3386
    axis 89.6202 -21.1929 12.3855 xyz
    dof rx ry rz
  end
  begin
    id 4
    name RightFoot
    direction 0.224283 -0.968777 -0.105675
    length 5.86697
    axis 56.995 -39.6905 17.3365 xyz
    dof rx ry rz
  end
  begin
    id 5
    name RightToes
    direction -0.0806345 -0.9037 0.420506
    length 4.75197
    axis 146.825 -39.7828 17.6019 xyz
    dof rx ry rz
  end
  begin
    id 6
    name SpineDummy
    direction -3.39852e-014 1 9.33296e-014
    length 8.13779
    axis 0 0 0 xyz
  end
  begin
    id 7
    name Spine
    direction -0.156609 0.733703 0.661176
    length 7.14978
    axis 41.2365 5.68757 17.0844 xyz
    dof rx ry rz
  end
  begin
    id 8
    name Spine1
    direction 0 0 0
    length 0
    axis 42.8809 47.8308 -3.36039 xyz
    dof rx ry rz
  end
  begin
    id 9
    name HEadDummy
    direction 0.546431 0.701947 0.456819
    length 3.55512
    axis 42.8809 47.8308 -3.36039 xyz
  end
  begin
    id 10
    name HEad
    direction 0.23444 0.828559 0.508457
    length 7.35827
    axis 51.1864 49.2662 27.4903 xyz
    dof rx ry rz
  end
  begin
    id 11
    name LeftShoulder1Dummy
    direction 0.431183 0.475873 -0.766568
    length 2.49352
    axis 42.8809 47.8308 -3.36039 xyz
  end
  begin
    id 12
    name LeftShoulder1
    direction 0.268187 -0.383402 -0.883786
    length 4.48604
    axis -119.517 0.106469 35.1736 xyz
    dof rx ry rz
  end
  begin
    id 13
    name LeftArm
    direction 0.380567 -0.703221 -0.600541
    length 10.1142
    axis -5.41825 36.2925 7.8293 xyz
    dof rx ry rz
  end
  begin
    id 14
    name LeftForeArm
    direction 0.541071 -0.732356 -0.413396
    length 9.39839
    axis 4.65387 33.7604 7.81644 xyz
    dof rx ry rz
  end
  begin
    id 15
    name LeftHand
    direction 0.847511 -0.389379 -0.360707
    length 3.66142
    axis 7.65593 21.1436 -24.6758 xyz
    dof rx ry rz
  end
  begin
    id 16
    name RightShoulderDummy
    direction -0.692546 0.541855 0.476208
    length 2.49352
    axis 42.8809 47.8308 -3.36039 xyz
  end
  begin
    id 17
    name RightShoulder
    direction -0.870808 -0.316653 0.376065
    length 4.48602
    axis 141.571 51.133 -100.254 xyz
    dof rx ry rz
  end
  begin
    id 18
    name RightArm
    direction 0.366897 -0.87275 0.322015
    length 10.1142
    axis 92.3258 71.2036 138.917 xyz
    dof rx ry rz
  end
  begin
    id 19
    name RightForeArm
    direction 0.702487 -0.694568 0.155197
    length 9.39835
    axis 153.863 41.5092 -176.604 xyz
    dof rx ry rz
  end
  begin
    id 20
    name RightHand
    direction 0.79502 -0.601276 0.0800636
    length 3.66142
    axis 154.247 4.59222 142.9 xyz
    dof rx ry rz
  end
  begin
    id 21
    name LeftUpLegDummy
    direction 0.65628 -0.754516 0.00165102
    length 4.76919
    axis 0 0 0 xyz
  end
  begin
    id 22
    name LeftUpLeg
    direction -0.1277 -0.689368 0.713067
    length 17.9961
    axis -48.3385 -17.8675 0.791927 xyz
    dof rx ry rz
  end
  begin
    id 23
    name LeftLeg
    direction 0.109849 -0.991246 -0.0732378
    length 13.3386
    axis -2.05791 -7.30784 1.72042 xyz
    dof rx ry rz
  end
  begin
    id 24
    name LeftFoot
    direction 0.0448355 -0.272614 0.961078
    length 5.86697
    axis -18.7733 -7.89606 10.2113 xyz
    dof rx ry rz
  end
  begin
    id 25
    name LeftToes
    direction -0.18506 0.293668 0.937823
    length 4.75197
    axis 71.2267 -7.89606 10.2113 xyz
    dof rx ry rz
  end
:hierarchy
  begin
    root RightUpLegDummy SpineDummy LeftUpLegDummy
    RightUpLegDummy RightUpLeg
    RightUpLeg RightLeg
    RightLeg RightFoot
    RightFoot RightToes
    SpineDummy Spine
    Spine Spine1
    Spine1 HEadDummy LeftShoulder1Dummy RightShoulderDummy
    HEadDummy HEad
    LeftShoulder1Dummy LeftShoulder1
    LeftShoulder1 LeftArm
    LeftArm LeftForeArm
    LeftForeArm LeftHand
    RightShoulderDummy RightShoulder
    RightShoulder RightArm
    RightArm RightForeArm
    RightForeArm RightHand
    LeftUpLegDummy LeftUpLeg
    LeftUpLeg LeftLeg
    LeftLeg LeftFoot
    LeftFoot LeftToes
  end

:SAMPLES-PER-SECOND 30
:FULLY-SPECIFIED
:DEGREES
594
root  -34.509 38.7388 -10.714 157.023 78.9268 165.877
RightUpLeg  23.2348 -0.0529379 9.96463
RightLeg  -91.0626 -13.3472 8.64653
RightFoot  8.21197 7.94884 -19.6484
RightToes  -1.27222e-014 -6.36111e-015 6.36111e-015
Spine  -47.3958 -5.05132 -6.06247
Spine1  15.4806 -5.97958 35.8562
HEad  15.1913 24.8709 -7.69856
LeftShoulder1  6.36111e-015 -1.33558e-015 6.49777e-015
LeftArm  27.14 2.83244 -38.2685
LeftForeArm  15.3935 -25.5967 -16.3842
LeftHand  -0.202242 2.66318 -11.5458
RightShoulder  -4.77083e-015 -6.36111e-015 -3.18055e-015
RightArm  67.103 -43.45 -56.431
RightForeArm  3.28265 -8.63362 10.9773
RightHand  2.299 -6.11197 -6.71212
LeftUpLeg  23.0937 24.9726 15.3841
LeftLeg  -13.2246 -9.29859 -0.946104
LeftFoot  0.293317 4.67336 -15.5378
LeftToes  9.54166e-015 -1.91609e-011 -2.3878e-011
595
root  -34.6301 38.7454 -10.4388 157.15 80.5355 166.004
RightUpLeg  23.4981 0.142195 11.006
RightLeg  -91.3369 -13.078 7.42852
RightFoot  8.19758 7.50668 -18.7679
RightToes  -1.27222e-014 -6.36111e-015 6.36111e-015
Spine  -47.7454 -5.03872 -6.11144
Spine1  15.5498 -6.04308 36.5531
HEad  15.8349 25.3692 -7.43114
LeftShoulder1  6.36111e-015 -1.33558e-015 6.49777e-015
LeftArm  27.463 2.61707 -38.7777
LeftForeArm  15.1201 -25.8988 -16.0535
LeftHand  0.00883589 3.16461 -10.8898
RightShoulder  -4.77083e-015 -6.36111e-015 -3.18055e-015
RightArm  67.1461 -43.5771 -56.218
RightForeArm  2.55014 -9.01797 10.5818
RightHand  2.13888 -5.53766 -6.56078
LeftUpLeg  23.2558 25.841 15.5846
LeftLeg  -13.6667 -9.99509 -0.851873
LeftFoot  0.811441 5.07433 -16.5952
LeftToes  9.54166e-015 -1.91609e-011 -2.3878e-011
596
root  -34.7262 38.7456 -10.1606 156.209 82.514 165.038
RightUpLeg  23.8103 0.554542 12.1494
RightLeg  -91.5209 -12.8273 6.07663
RightFoot  8.34865 7.16197 -18.1051
RightToes  -1.27222e-014 -6.36111e-015 6.36111e-015
Spine  -47.853 -5.24047 -6.53114
Spine1  15.0744 -6.11933 37.8437
HEad  16.8841 26.4304 -7.07857
LeftShoulder1  6.36111e-015 -1.33558e-015 6.49777e-015
LeftArm  28.3576 2.18811 -39.9574
LeftForeArm  13.6217 -25.4345 -15.02
LeftHand  0.154096 3.44692 -10.3095
RightShoulder  -4.77083e-015 -6.36111e-015 -3.18055e-015
RightArm  66.1909 -43.5673 -55.0834
RightForeArm  2.15985 -8.84671 10.2832
RightHand  1.85779 -4.8604 -5.84541
LeftUpLeg  23.4524 26.7475 15.8505
LeftLeg  -13.9367 -10.7191 -0.750244
LeftFoot  1.37481 5.47957 -17.6056
LeftToes  9.54166e-015 -1.91609e-011 -2.3878e-011
597
root  -34.8019 38.743 -9.87975 152.338 84.8242 161.162
RightUpLeg  24.1958 1.05454 13.3175
RightLeg  -91.7294 -12.6073 4.84144
RightFoot  8.63895 7.17159 -18.1644
RightToes  -1.27222e-014 -6.36111e-015 6.36111e-015
Spine  -47.8173 -5.22706 -6.91381
Spine1  14.5154 -6.01664 38.9466
HEad  17.8845 27.6053 -6.73516
LeftShoulder1  6.36111e-015 -1.33558e-015 6.49777e-015
LeftArm  29.3621 1.53778 -41.3697
LeftForeArm  11.4537 -24.3495 -13.6513
LeftHand  0.192331 3.40055 -9.84755
RightShoulder  -4.77083e-015 -6.36111e-015 -3.18055e-015
RightArm  64.0875 -43.5113 -52.8002
RightForeArm  2.01719 -8.32328 10.2558
RightHand  1.68343 -4.30735 -5.5474
LeftUpLeg  23.6798 27.5141 15.9596
LeftLeg  -14.0606 -11.5232 -0.639176
LeftFoot  1.72209 5.71704 -18.1708
LeftToes  9.54166e-015 -1.91609e-011 -2.3878e-011
598
root  -34.8541 38.7255 -9.59129 138.273 87.1873 147.045
RightUpLeg  24.5497 1.6269 14.4263
RightLeg  -91.7744 -12.4315 3.59835
RightFoot  8.75053 7.25359 -18.3405
RightToes  -1.27222e-014 -6.36111e-015 6.36111e-015
Spine  -47.8375 -4.88752 -7.08737
Spine1  14.2026 -5.71657 39.4904
HEad  18.4958 28.6085 -6.54707
LeftShoulder1  6.36111e-015 -1.33558e-015 6.49777e-015
LeftArm  30.1138 0.766579 -42.6959
LeftForeArm  9.73699 -23.5128 -12.5283
LeftHand  0.186355 3.21396 -9.40442
RightShoulder  -4.77083e-015 -6.36111e-015 -3.18055e-015
RightArm  61.0569 -43.5629 -49.6398
RightForeArm  1.83472 -7.77278 10.3096
RightHand  1.6688 -3.94622 -5.93818
LeftUpLeg  23.7011 28.0506 15.6881
LeftLeg  -13.9187 -12.2277 -0.557393
LeftFoot  1.99824 5.90478 -18.6076
LeftToes  9.54166e-015 -1.91609e-011 -2.3878e-011
599
root  -34.8812 38.6911 -9.28529 72.157 88.4987 80.8225
RightUpLeg  24.8878 2.37382 15.5189
RightLeg  -91.5613 -12.2808 2.20794
RightFoot  8.60332 7.0922 -18.0035
RightToes  -1.27222e-014 -6.36111e-015 6.36111e-015
Spine  -47.867 -4.4304 -7.19337
Spine1  14.0153 -5.32854 39.6928
HEad  18.8281 29.6666 -6.43526
LeftShoulder1  6.36111e-015 -1.33558e-015 6.49777e-015
LeftArm  30.903 -0.29016 -44.2
LeftForeArm  8.68283 -23.2744 -11.7008
LeftHand  0.27481 3.31392 -8.87887
RightShoulder  -4.77083e-015 -6.36111e-015 -3.18055e-015
RightArm  57.5489 -43.6621 -45.6635
RightForeArm  1.17699 -7.42285 10.0188
RightHand  1.67383 -3.65665 -6.36409
LeftUpLeg  23.5474 28.4517 15.1352
LeftLeg  -13.5619 -12.7407 -0.520957
LeftFoot  2.44956 6.2039 -19.2808
LeftToes  9.54166e-015 -1.91609e-011 -2.3878e-011
600
root  -34.8835 38.6519 -8.9659 18.7168 86.7201 27.3181
RightUpLeg  25.3082 3.16858 16.5331
RightLeg  -91.1778 -12.1332 0.694098
RightFoot  8.37986 6.84838 -17.4906
RightToes  -1.27222e-014 -6.36111e-015 6.36111e-015
Spine  -47.7393 -3.9174 -7.25238
Spine1  13.7706 -4.90169 39.6404
HEad  19.1139 31.005 -6.25319
LeftShoulder1  6.36111e-015 -1.33558e-015 6.49777e-015
LeftArm  31.987 -1.70636 -46.0115
LeftForeArm  7.84292 -23.2441 -10.9703
LeftHand  0.498406 3.83993 -8.33001
RightShoulder  -4.77083e-015 -6.36111e-015 -3.18055e-015
RightArm  53.7642 -43.433 -40.2648
RightForeArm  -0.354816 -7.56674 9.14196
RightHand  1.59055 -3.25915 -6.41138
LeftUpLeg  23.5416 28.9411 14.5832
LeftLeg  -13.2355 -13.4125 -0.468103
LeftFoot  2.93786 6.58567 -20.1621
LeftToes  9.54166e-015 -1.91609e-011 -2.3878e-011
601
root  -34.8601 38.6064 -8.64555 6.79445 84.0635 15.4896
RightUpLeg  25.9043 3.80724 17.3481
RightLeg  -90.6347 -11.9783 -0.951738
RightFoot  8.09006 6.74796 -17.2468
RightToes  -1.27222e-014 -6.36111e-015 6.36111e-015
Spine  -47.266 -3.16659 -7.04793
Spine1  13.4005 -4.39742 39.1031
HEad  19.3444 32.4202 -6.03436
LeftShoulder1  6.36111e-015 -1.33558e-015 6.49777e-015
LeftArm  33.0902 -3.23977 -47.7563
LeftForeArm  7.10546 -23.1753 -10.3469
LeftHand  0.741635 4.44448 -7.8668
RightShoulder  -4.77083e-015 -6.36111e-015 -3.18055e-015
RightArm  49.8296 -42.4914 -33.2629
RightForeArm  -2.64388 -8.32585 7.73417
RightHand  1.45568 -2.68336 -6.39314
LeftUpLeg  23.8786 29.6049 14.2165
LeftLeg  -12.9136 -14.8178 -0.337419
LeftFoot  3.14445 7.05925 -21.4581
LeftToes  9.54166e-015 -1.91609e-011 -2.3878e-011
